<?xml version="1.0" encoding="UTF-8"?>
<svg xmlns="http://www.w3.org/2000/svg" id="Komponente_83_2" data-name="Komponente 83 – 2" width="153.984" height="77.089" viewBox="0 0 153.984 77.089">
  <g id="Gruppe_7009" data-name="Gruppe 7009">
    <path id="Pfad_4185" data-name="Pfad 4185" d="M63.117,581.627a16.06,16.06,0,1,1,16.061,16.061,16.079,16.079,0,0,1-16.061-16.061m25.7,35.333a6.424,6.424,0,1,1,0,12.848H69.541a6.424,6.424,0,1,1,0-12.848Zm-19.041-8.728q.463-.972.987-1.917a4.866,4.866,0,0,1,4.982-2.466,22.474,22.474,0,0,0,21.42-35.7,1.611,1.611,0,0,1,1.287-2.581h3.206v-6.424H79.832v.01c-.217-.007-.436-.01-.654-.01a22.473,22.473,0,0,0-15.366,38.883,4.842,4.842,0,0,1,.98,5.808,41.105,41.105,0,0,0-3.375,8.522,5.282,5.282,0,0,1-1.237,2.237,12.8,12.8,0,0,0-3.487,8.912A12.938,12.938,0,0,0,69.68,636.232H88.672a12.849,12.849,0,1,0,.141-25.7H71.23a1.609,1.609,0,0,1-1.459-2.3Z" transform="translate(-56.693 -559.143)" fill="#fff"></path>
    <path id="Pfad_4186" data-name="Pfad 4186" d="M137.925,597.673a16.04,16.04,0,1,1,16.04-16.04,16.059,16.059,0,0,1-16.04,16.04m0-38.5a22.456,22.456,0,1,0,22.457,22.456,22.481,22.481,0,0,0-22.457-22.456" transform="translate(-67.336 -559.149)" fill="#fff"></path>
    <path id="Pfad_4187" data-name="Pfad 4187" d="M224.841,578.425h-30.53a.356.356,0,0,1-.346-.437,16.042,16.042,0,0,1,31.239-.02.373.373,0,0,1-.363.458m2.3,6.416a4.829,4.829,0,0,0,4.827-5c0-.1-.008-.188-.013-.248a22.456,22.456,0,0,0-44.547-1.451.333.333,0,0,1-.328.282h-12.8v6.416h12.8a.333.333,0,0,1,.328.283,22.455,22.455,0,0,0,42.471,6.134h-5.258a4.807,4.807,0,0,0-3.467,1.481,16.029,16.029,0,0,1-27.181-7.46.357.357,0,0,1,.346-.438h32.824Z" transform="translate(-77.983 -559.149)" fill="#fff"></path>
  </g>
</svg>
