<svg width="175" height="39" viewBox="0 0 175 39" fill="none" xmlns="http://www.w3.org/2000/svg">
<g clip-path="url(#clip0_2278_16574)">
<mask id="mask0_2278_16574" style="mask-type:luminance" maskUnits="userSpaceOnUse" x="0" y="0" width="175" height="39">
<path d="M175 0H0V39H175V0Z" fill="white"/>
</mask>
<g mask="url(#mask0_2278_16574)">
<path d="M38.7343 0.297363H-0.0390625V39.0707H38.7343V0.297363Z" fill="#010036"/>
<path d="M27.8302 9.18298H11.4727V13.4238H16.9252V30.3871H22.1757V13.4238H27.8302V9.18298Z" fill="white"/>
<path d="M133.469 13.6258H138.719V29.7814H143.566V13.6258H149.018V9.78882H133.469V13.6258Z" fill="#010036"/>
<path d="M46.6328 13.6258H51.8834V29.7814H56.73V13.6258H62.1825V9.78882H46.6328V13.6258Z" fill="#010036"/>
<path d="M130.843 9.78882H125.996V29.7814H130.843V9.78882Z" fill="#010036"/>
<path d="M164.392 9.78882L160.555 17.8666L156.718 9.78882H151.266L158.132 23.1172V29.7814H162.978V23.1172L170.046 9.78882H164.392Z" fill="#010036"/>
<path d="M117.315 22.3094L109.237 9.78882H104.391V29.7814H109.237V17.2608L117.315 29.7814H122.162V9.78882H117.315V22.3094Z" fill="#010036"/>
<path d="M80.3571 16.0491C80.3571 12.6161 77.5299 9.78882 74.0969 9.78882H69.4521H64.6055V29.7814H69.4521V22.3094H70.4619L74.7027 29.7814H80.1552L75.5105 22.1075C78.3377 21.2997 80.3571 18.8764 80.3571 16.0491ZM72.8852 18.8764H69.4521V13.8278H72.8852C74.2988 13.8278 75.3085 15.0394 75.3085 16.2511C75.3085 17.4628 74.2988 18.8764 72.8852 18.8764Z" fill="#010036"/>
<path d="M91.8707 9.58679C86.2162 9.58679 81.7734 14.0296 81.7734 19.6841V19.886C81.7734 25.5404 86.2162 29.9832 91.8707 29.9832C97.5251 29.9832 101.968 25.5404 101.968 19.886V19.6841C101.968 14.0296 97.5251 9.58679 91.8707 9.58679ZM96.9193 20.4918C96.9193 23.3191 94.6979 25.5404 91.8707 25.5404C89.0434 25.5404 86.8221 23.3191 86.8221 20.4918V19.0782C86.8221 16.251 89.0434 14.0296 91.8707 14.0296C94.6979 14.0296 96.9193 16.251 96.9193 19.0782V20.4918Z" fill="#010036"/>
<path d="M16.9258 23.5209L22.1763 17.4626V30.387H16.9258V23.5209Z" fill="#0985FF"/>
</g>
</g>
<defs>
<clipPath id="clip0_2278_16574">
<rect width="175" height="39" fill="white"/>
</clipPath>
</defs>
</svg>
